<svg aria-hidden="true" style="position: absolute; width: 0; height: 0; overflow: hidden;" version="1.1" xmlns="http://www.w3.org/2000/svg" xmlns:xlink="http://www.w3.org/1999/xlink">
<defs>
<symbol id="notes" viewBox="0 0 28 32">
<title>notes</title>
<path fill="#ef4035" style="fill: var(--color1, #ef4035)" d="M6.403 26.513c0 0-5.486 0-5.486 0s0-5.486 0-5.486c0 0 5.486 0 5.486 0s0 5.486 0 5.486zM2.745 24.684c0 0 1.829 0 1.829 0s0-1.829 0-1.829c0 0-1.829 0-1.829 0s0 1.829 0 1.829zM6.403 19.199c0 0-5.486 0-5.486 0s0-5.486 0-5.486c0 0 5.486 0 5.486 0s0 5.486 0 5.486zM2.745 17.37c0 0 1.829 0 1.829 0s0-1.828 0-1.828c0 0-1.829 0-1.829 0s0 1.828 0 1.828zM26.517 31.085c0 0-23.771 0-23.771 0s0-2.694 0-2.694c0 0 1.829 0 1.829 0s0 0.865 0 0.865c0 0 20.114 0 20.114 0s0-25.6 0-25.6c0 0-20.114 0-20.114 0s0 0.901 0 0.901c0 0-1.829 0-1.829 0s0-2.73 0-2.73c0 0 23.771 0 23.771 0s0 29.257 0 29.257zM6.403 11.885c0 0-5.486 0-5.486 0s0-5.486 0-5.486c0 0 5.486 0 5.486 0s0 5.486 0 5.486zM2.745 10.056c0 0 1.829 0 1.829 0s0-1.829 0-1.829c0 0-1.829 0-1.829 0s0 1.829 0 1.829zM21.031 29.256c0 0-1.829 0-1.829 0s0-25.6 0-25.6c0 0 1.829 0 1.829 0s0 25.6 0 25.6z"></path>
</symbol>
<symbol id="antenna" viewBox="0 0 32 32">
<title>antenna</title>
<path fill="#ef4035" style="fill: var(--color1, #ef4035)" d="M12.443 30.668c-2.613 0-5.068-1.016-6.915-2.862-3.813-3.813-3.813-10.017 0-13.83 0 0 3.143-3.143 3.143-3.143s13.83 13.829 13.83 13.829c0 0-3.142 3.145-3.142 3.145-1.847 1.846-4.303 2.862-6.916 2.862zM8.671 13.346c0 0-1.886 1.886-1.886 1.886-3.12 3.12-3.12 8.196 0 11.315 1.51 1.51 3.52 2.342 5.658 2.342s4.148-0.832 5.658-2.342c0 0 1.886-1.887 1.886-1.887s-11.316-11.315-11.316-11.315zM8.043 25.291c-2.426-2.427-2.426-6.376 0-8.802 0 0 1.257 1.257 1.257 1.257-1.733 1.734-1.733 4.554 0 6.288 0 0-1.257 1.257-1.257 1.257zM18.515 18.959c0 0-1.258-1.258-1.258-1.258 0.336-0.336 0.521-0.782 0.521-1.258s-0.185-0.921-0.52-1.256c-0.672-0.672-1.843-0.672-2.514 0 0 0-1.258-1.258-1.258-1.258 1.343-1.344 3.686-1.344 5.029 0 0.671 0.67 1.041 1.564 1.041 2.513 0 0.95-0.37 1.844-1.041 2.516zM23.966 16.364c-0.001-4.412-3.562-8.001-7.973-8.001 0 0 0-1.778 0-1.778 5.391 0 9.751 4.387 9.752 9.779 0 0-1.778 0-1.778 0zM29.336 16.401c-0.003-6.837-5.567-12.401-12.403-12.403 0 0 0-1.778 0-1.778 7.816 0.002 14.177 6.363 14.181 14.181 0 0-1.778 0-1.778 0z"></path>
</symbol>
<symbol id="briefcase" viewBox="0 0 32 32">
<title>briefcase</title>
<path fill="#ef4035" style="fill: var(--color1, #ef4035)" d="M31.086 30.173c0 0-29.257 0-29.257 0s0-11.886 0-11.886c0 0 29.257 0 29.257 0s0 11.886 0 11.886zM3.657 28.344c0 0 25.6 0 25.6 0s0-8.229 0-8.229c0 0-25.6 0-25.6 0s0 8.229 0 8.229zM16.457 22.858c-1.513 0-2.743-1.23-2.743-2.743 0 0 1.829 0 1.829 0 0 0.504 0.41 0.914 0.914 0.914s0.914-0.41 0.914-0.914c0 0 1.829 0 1.829 0 0 1.512-1.23 2.743-2.743 2.743zM22.861 9.144c0 0-3.661 0-3.661 0s0-1.829 0-1.829c0-1.512-1.23-2.743-2.743-2.743s-2.743 1.23-2.743 2.743c0 0 0 1.829 0 1.829s-3.648 0-3.648 0c0 0 0-1.829 0-1.829s1.82 0 1.82 0c0-2.52 2.051-4.571 4.571-4.571s4.571 2.051 4.571 4.571c0 0 1.832 0 1.832 0s0 1.829 0 1.829zM31.086 16.458c0 0-1.829 0-1.829 0s0-3.657 0-3.657c0 0-25.6 0-25.6 0s0 3.657 0 3.657c0 0-1.829 0-1.829 0s0-5.486 0-5.486c0 0 29.257 0 29.257 0s0 5.486 0 5.486z"></path>
</symbol>
<symbol id="bulb" viewBox="0 0 32 32">
<title>bulb</title>
<path fill="#ef4035" style="fill: var(--color1, #ef4035)" d="M20.493 21.444c0 0-1.632-0.825-1.632-0.825s2.315-4.479 2.315-4.479c2.852-2.851 2.852-7.492 0-10.343s-7.493-2.852-10.345 0c-2.852 2.852-2.852 7.492 0 10.343 0 0 0.104 0.104 0.104 0.104s2.199 4.376 2.199 4.376c0 0-1.634 0.822-1.634 0.822s-2.069-4.117-2.069-4.117c-3.458-3.573-3.423-9.292 0.106-12.822 3.565-3.565 9.366-3.565 12.93 0 3.529 3.529 3.564 9.25 0.105 12.823 0 0-2.081 4.117-2.081 4.117zM12.456 24.647c0 0-0.22-1.816-0.22-1.816s7.314-0.886 7.314-0.886c0 0 0.22 1.816 0.22 1.816s-7.314 0.886-7.314 0.886zM12.456 27.389c0 0-0.22-1.814-0.22-1.814s7.314-0.886 7.314-0.886c0 0 0.22 1.816 0.22 1.816s-7.314 0.885-7.314 0.885zM15.982 31.082c-1.512 0-2.743-1.23-2.743-2.743 0 0 1.829 0 1.829 0 0 0.504 0.41 0.915 0.914 0.915s0.914-0.411 0.914-0.915c0 0 1.829 0 1.829 0 0 1.513-1.23 2.743-2.743 2.743zM12.347 10.968c0 0-1.829 0-1.829 0 0-3.025 2.461-5.486 5.486-5.486 0 0 0 1.829 0 1.829-2.017 0-3.657 1.64-3.657 3.657z"></path>
</symbol>
<symbol id="chart" viewBox="0 0 32 32">
<title>chart</title>
<path fill="#ef4035" style="fill: var(--color1, #ef4035)" d="M13.718 31.081c-7.058 0-12.8-5.742-12.8-12.799s5.742-12.8 12.8-12.8c0 0 0 1.828 0 1.828-6.050 0-10.971 4.922-10.971 10.972s4.921 10.971 10.971 10.971c6.050 0 10.971-4.922 10.971-10.971 0 0 1.829 0 1.829 0 0 7.058-5.742 12.799-12.8 12.799zM30.175 16.453c0 0-14.629 0-14.629 0s0-14.628 0-14.628c0 0 0.914 0 0.914 0 7.049 0 13.714 6.664 13.714 13.714 0 0 0 0.914 0 0.914zM17.375 14.624c0 0 10.929 0 10.929 0-0.508-5.456-5.473-10.42-10.929-10.928 0 0 0 10.928 0 10.928z"></path>
</symbol>
<symbol id="chemical-glass" viewBox="0 0 32 32">
<title>chemical-glass</title>
<path fill="#ef4035" style="fill: var(--color1, #ef4035)" d="M21.445 3.656c0 0-10.958 0-10.958 0s0-1.829 0-1.829c0 0 10.958 0 10.958 0s0 1.829 0 1.829zM25.436 31.084c0 0-18.917 0-18.917 0s-0.268-0.268-0.268-0.268c-1.38-1.381-2.142-3.233-2.147-5.215-0.004-1.986 0.754-3.84 2.132-5.22 0 0 6.075-6.132 6.075-6.132s0-8.764 0-8.764c0 0 1.826 0 1.826 0s0 9.521 0 9.521c0 0-6.61 6.667-6.61 6.667-1.033 1.035-1.6 2.428-1.597 3.923 0.003 1.371 0.483 2.656 1.361 3.659 0 0 17.369 0 17.369 0 1.875-2.153 1.799-5.544-0.235-7.582 0 0-6.61-6.668-6.61-6.668s0-9.521 0-9.521c0 0 1.826 0 1.826 0s0 8.764 0 8.764c0 0 6.075 6.132 6.075 6.132 2.87 2.874 2.863 7.555-0.014 10.435 0 0-0.268 0.268-0.268 0.268zM7.955 26.805c-0.129-0.382-0.195-0.79-0.196-1.211-0.003-1.005 0.375-1.938 1.064-2.628 0 0 6.395-6.4 6.395-6.4s1.291 1.293 1.291 1.293c0 0-6.395 6.4-6.395 6.4-0.342 0.343-0.53 0.815-0.529 1.33 0.001 0.223 0.034 0.436 0.1 0.631 0 0-1.73 0.584-1.73 0.584z"></path>
</symbol>
<symbol id="layers" viewBox="0 0 32 32">
<title>layers</title>
<path fill="#ef4035" style="fill: var(--color1, #ef4035)" d="M15.532 19.511c0 0-14.547-7.815-14.547-7.815s14.547-7.815 14.547-7.815c0 0 14.547 7.815 14.547 7.815s-14.547 7.815-14.547 7.815zM5.046 11.696c0 0 10.485 5.632 10.485 5.632s10.485-5.632 10.485-5.632c0 0-10.485-5.633-10.485-5.633s-10.485 5.633-10.485 5.633zM15.532 24.168c0 0-13.903-6.808-13.903-6.808s0.848-1.725 0.848-1.725c0 0 13.055 6.393 13.055 6.393s13.055-6.393 13.055-6.393c0 0 0.848 1.725 0.848 1.725s-13.903 6.808-13.903 6.808zM15.532 29.095c0 0-13.903-6.807-13.903-6.807s0.848-1.725 0.848-1.725c0 0 13.055 6.392 13.055 6.392s13.055-6.392 13.055-6.392c0 0 0.848 1.725 0.848 1.725s-13.903 6.807-13.903 6.807zM26.122 22.743c0 0 0 0 0 0z"></path>
</symbol>
<symbol id="shield" viewBox="0 0 32 32">
<title>shield</title>
<path fill="#ef4035" style="fill: var(--color1, #ef4035)" d="M5.030 21.037c0 0 0 0 0 0zM26.973 21.037c0 0 0 0 0 0zM5.944 21.037c0 0-1.829 0-1.829 0s0-11.886 0-11.886c0 0 1.829 0 1.829 0s0 11.886 0 11.886zM27.887 21.037c0 0-1.829 0-1.829 0s0-11.886 0-11.886c0 0 1.829 0 1.829 0s0 11.886 0 11.886zM17.144 30.18c0 0-2.286 0-2.286 0s-8.566-4.578-8.566-4.578c-2.029-1.214-2.177-2.542-2.177-4.564 0 0 1.829 0 1.829 0 0 1.853 0.118 2.32 1.371 3.044 0 0 0.004 0.003 0.004 0.003s7.996 4.267 7.996 4.267c0 0 1.371 0 1.371 0s8.001-4.27 8.001-4.27c1.253-0.724 1.37-1.19 1.37-3.044 0 0 1.829 0 1.829 0 0 2.022-0.148 3.35-2.177 4.564 0 0-0.136 0.080-0.136 0.080s-8.43 4.498-8.43 4.498zM22.401 17.38c0 0-12.8 0-12.8 0s0-1.829 0-1.829c0 0 12.8 0 12.8 0s0 1.829 0 1.829zM22.401 21.037c0 0-12.8 0-12.8 0s0-1.828 0-1.828c0 0 12.8 0 12.8 0s0 1.828 0 1.828zM16.001 13.723c0 0-6.4 0-6.4 0s0-1.829 0-1.829c0 0 6.4 0 6.4 0s0 1.829 0 1.829zM27.887 7.323c0 0-6.4 0-6.4 0-2.325 0-4.365-1.247-5.486-3.106-1.121 1.86-3.161 3.106-5.486 3.106 0 0-6.4 0-6.4 0s0-1.829 0-1.829c0 0 6.4 0 6.4 0 2.521 0 4.571-2.051 4.571-4.571 0 0 1.829 0 1.829 0 0 2.521 2.051 4.571 4.571 4.571 0 0 6.4 0 6.4 0s0 1.829 0 1.829z"></path>
</symbol>
<symbol id="tools" viewBox="0 0 31 32">
<title>tools</title>
<path fill="#ef4035" style="fill: var(--color1, #ef4035)" d="M4.45 7.784c0.712 0 1.381-0.28 1.883-0.785 0.504-0.508 0.782-1.182 0.782-1.9 0-0.719-0.278-1.395-0.781-1.902 0 0-1.256-1.267-1.256-1.267s-3.768 3.8-3.768 3.8c0 0 1.256 1.267 1.256 1.267 0.503 0.507 1.172 0.787 1.884 0.787 0 0 0 0 0 0zM3.822 5.73c0 0 1.256-1.267 1.256-1.267s0 0.001 0 0.001c0.168 0.169 0.261 0.394 0.261 0.634-0 0.238-0.093 0.463-0.261 0.633-0.167 0.169-0.39 0.262-0.627 0.262 0 0 0 0 0 0-0.238 0-0.461-0.093-0.628-0.263zM10.709 12.477c0 0-5.62-5.468-5.62-5.468s1.233-1.29 1.233-1.29c0 0 5.62 5.469 5.62 5.469s-1.233 1.29-1.233 1.29zM24.26 26.389c0 0 1.256-1.267 1.256-1.267s-5.093-5.379-5.093-5.379c0 0-1.256 1.267-1.256 1.267s5.093 5.379 5.093 5.379zM24.888 30.233c1.138 0 2.276-0.438 3.143-1.312 1.731-1.746 1.729-4.59-0.005-6.342 0 0-5.632-5.923-5.632-5.923s-1.256 1.266-1.256 1.266c0 0 5.632 5.923 5.632 5.923 1.042 1.052 1.044 2.76 0.006 3.807s-2.726 1.051-3.762 0.006c0 0-5.643-5.934-5.643-5.934s-1.256 1.267-1.256 1.267c0 0 5.643 5.934 5.643 5.934 0.863 0.871 1.997 1.306 3.132 1.306zM21.784 15.388c1.66 0 3.221-0.653 4.395-1.837 0 0 1.624-1.638 1.624-1.638s-1.256-1.267-1.256-1.267c0 0-1.624 1.638-1.624 1.638-0.839 0.847-1.954 1.313-3.139 1.313 0 0-0 0-0 0-1.186 0-2.301-0.466-3.14-1.313s-1.302-1.971-1.302-3.167c-0-1.196 0.462-2.322 1.302-3.169 0 0 1.624-1.638 1.624-1.638s-1.256-1.267-1.256-1.267c0 0-1.624 1.639-1.624 1.639-1.175 1.184-1.822 2.76-1.822 4.436 0 1.674 0.647 3.249 1.822 4.434s2.736 1.837 4.396 1.837c0 0 0 0 0 0zM27.803 11.912c0 0-1.884-1.9-1.884-1.9s-0.628 0.633-0.628 0.633c-0.67 0.678-1.562 1.050-2.511 1.050 0 0-0.001 0-0.001 0-0.949-0-1.841-0.373-2.511-1.050-0.67-0.676-1.040-1.576-1.040-2.534 0-0.957 0.37-1.857 1.040-2.535 0 0 0.628-0.633 0.628-0.633s-1.884-1.901-1.884-1.901c0 0 1.256-1.266 1.256-1.266s3.14 3.168 3.14 3.168c0 0-1.884 1.9-1.884 1.9-0.336 0.339-0.52 0.789-0.52 1.268s0.185 0.928 0.52 1.266c0.335 0.339 0.781 0.525 1.255 0.525 0 0 0 0 0 0 0.474 0 0.92-0.186 1.256-0.525 0 0 1.884-1.901 1.884-1.901s3.14 3.168 3.14 3.168c0 0-1.256 1.267-1.256 1.267zM6.255 26.573c0 0-1.776 0-1.776 0s0-1.792 0-1.792c0 0 1.776 0 1.776 0s0 1.792 0 1.792zM16.112 17.843c0 0-3.523-3.514-3.523-3.514s1.249-1.274 1.249-1.274c0 0 3.523 3.514 3.523 3.514s-1.249 1.274-1.249 1.274zM5.339 30.185c-1.186 0-2.301-0.466-3.14-1.312s-1.301-1.971-1.301-3.168 0.462-2.322 1.301-3.168c0 0 0.106-0.091 0.106-0.091s9.189-6.734 9.189-6.734c0 0 1.044 1.45 1.044 1.45s-9.128 6.69-9.128 6.69c-0.474 0.502-0.735 1.157-0.735 1.853 0 0.718 0.277 1.393 0.781 1.9 0.991 1.001 2.711 1.018 3.721 0.046 0 0 6.633-9.207 6.633-9.207s1.437 1.054 1.437 1.054c0 0-6.767 9.374-6.767 9.374-0.838 0.846-1.953 1.313-3.14 1.313z"></path>
</symbol>
</defs>
</svg>
