<svg width="19" height="20" xmlns="http://www.w3.org/2000/svg" xmlns:xlink="http://www.w3.org/1999/xlink" xmlns:svgjs="http://svgjs.com/svgjs" viewBox="0 0.499 19 19.002"><svg xmlns="http://www.w3.org/2000/svg" width="19" height="20" viewBox="1.104 1.638 17.561 17.563" fill="#fff"><path paint-order="stroke fill markers" fill-rule="evenodd" d="M18.488 8.65a8.824 8.824 0 0 0-.513-1.648 8.612 8.612 0 0 0-.81-1.493 8.743 8.743 0 0 0-2.37-2.37 8.674 8.674 0 0 0-3.14-1.32 8.786 8.786 0 0 0-9.86 5.183 8.756 8.756 0 0 0-.512 5.185 8.67 8.67 0 0 0 .513 1.649 8.699 8.699 0 0 0 1.88 2.793c.398.397.835.756 1.3 1.07a8.708 8.708 0 0 0 3.141 1.323 8.798 8.798 0 0 0 5.187-.512 8.674 8.674 0 0 0 1.492-.81 8.743 8.743 0 0 0 2.37-2.37 8.735 8.735 0 0 0 1.5-4.912c0-.594-.06-1.19-.178-1.768zm-1.106 1.694c-.109-.022-2.647-.569-5.222-.245l-.162-.388c-.157-.367-.325-.73-.5-1.088 2.962-1.207 4.164-2.946 4.179-2.967a7.466 7.466 0 0 1 1.705 4.688zM14.839 4.79c-.019.03-1.087 1.654-3.918 2.717a37.89 37.89 0 0 0-2.802-4.376 7.48 7.48 0 0 1 6.72 1.658zm-6.75-1.653v.002l-.024.004.025-.006zm-1.403.498c.1.135 1.487 2.014 2.784 4.32-3.6.958-6.724.92-6.923.917a7.514 7.514 0 0 1 4.14-5.237zm-4.3 6.782c0-.08.005-.156.007-.237.132.004 3.838.088 7.698-1.068.216.42.422.848.61 1.276a5.49 5.49 0 0 0-.297.09c-4.048 1.306-6.098 4.947-6.098 4.947l.002.006a7.482 7.482 0 0 1-1.921-5.014zm7.5 7.5A7.462 7.462 0 0 1 5.109 16.2c.098.08.167.131.167.131s1.438-3.135 5.885-4.684l.05-.015c1.056 2.742 1.491 5.037 1.601 5.693a7.45 7.45 0 0 1-2.926.594zm4.19-1.28c-.077-.452-.476-2.654-1.46-5.357 2.421-.385 4.519.278 4.674.328a7.498 7.498 0 0 1-3.215 5.03z"/></svg></svg>