<svg aria-hidden="true" style="position:absolute;width:0;height:0" xmlns="http://www.w3.org/2000/svg" overflow="hidden"><defs><symbol id="shape1" viewBox="0 0 31 32"><path d="M30.057-.004h-4.6a.777.777 0 00-.779.779v1.608H6.114V.775a.777.777 0 00-.779-.779H.778a.777.777 0 00-.779.779v4.731c0 .432.347.779.779.779h4.6a.777.777 0 00.779-.779V3.898h8.544c-.085 1.908-4.727 10.888-7.676 16.181-.173.305-.085.694.173.952 2.645 2.255 3.296 4.468 3.47 5.598h-.999a.777.777 0 00-.779.779v3.817c0 .436.347.783.779.783h11.539a.778.778 0 00.779-.783v-3.817a.777.777 0 00-.779-.779h-.999c.174-1.13.825-3.343 3.47-5.598.258-.216.347-.648.174-.952-2.949-5.293-7.591-14.315-7.676-16.181h8.501v1.608c0 .432.347.779.779.779h4.6a.777.777 0 00.779-.779V.775a.777.777 0 00-.779-.779zM4.596 4.723H1.519V1.515h3.077v3.208zm10.845 12.711c.563 0 .995.432.995.995a.98.98 0 01-.995.999.98.98 0 01-.999-.999c0-.52.478-.995.999-.995zm5.031 12.97h-10.02v-2.302h10.02v2.302zm-1.781-3.821h-6.504c-.174-1.257-.825-3.771-3.555-6.331 1.037-1.908 4.16-7.634 6.026-11.886v7.68c-.999.301-1.735 1.257-1.735 2.383 0 1.388 1.13 2.518 2.518 2.518s2.514-1.13 2.514-2.518c0-1.126-.736-2.036-1.735-2.383V8.324c1.908 4.253 4.989 9.978 6.03 11.929-2.733 2.56-3.385 5.074-3.559 6.331zm10.626-21.86H26.24V1.558h3.077v3.165z"/></symbol><symbol id="shape2" viewBox="0 0 33 32"><path d="M32.387 32H.875a.88.88 0 01-.876-.884V5.465a.88.88 0 01.876-.884h31.512a.88.88 0 01.876.884v25.651a.88.88 0 01-.876.884zM1.752 30.232h29.76V6.35H1.752v23.882zM32.387 6.349H.875a.88.88 0 01-.876-.884V.88a.88.88 0 01.876-.884h31.512a.88.88 0 01.876.884v4.585a.88.88 0 01-.876.884zM1.752 4.581h29.76V1.764H1.752v2.817zm2.113-2.025c.337 0 .611.278.611.619s-.274.619-.611.619c-.337 0-.611-.278-.611-.619s.274-.619.611-.619zm1.832 0c.337 0 .611.278.611.619s-.274.615-.611.615c-.337 0-.611-.274-.611-.615s.274-.619.611-.619zm1.831 0a.62.62 0 010 1.238c-.337 0-.611-.278-.611-.619s.274-.619.611-.619zm4.699 18.151a.754.754 0 01-.539-.227l-2.383-2.404a.78.78 0 010-1.095l2.379-2.404a.765.765 0 011.082 0 .78.78 0 010 1.095l-1.836 1.857 1.84 1.857a.78.78 0 010 1.095.752.752 0 01-.543.227zm8.809 0a.754.754 0 01-.539-.227.78.78 0 010-1.095l1.836-1.853-1.84-1.861a.78.78 0 010-1.095.765.765 0 011.082 0l2.383 2.408a.774.774 0 010 1.09l-2.379 2.404a.76.76 0 01-.543.227zm-5.503 1.786a.773.773 0 01-.741-.964l1.945-7.697a.766.766 0 01.931-.56.774.774 0 01.556.943l-1.949 7.697a.767.767 0 01-.741.581z"/></symbol><symbol id="shape3" viewBox="0 0 28 32"><path d="M7.652 13.401a.548.548 0 01-.39-.158l-1.09-1.083a.545.545 0 010-.774.555.555 0 01.781 0l.7.693 1.786-1.776c.218-.214.566-.214.781 0s.214.559 0 .774l-2.177 2.166a.562.562 0 01-.39.158zm11.446-1.079h-6.565a.55.55 0 110-1.098h6.565a.55.55 0 110 1.098zM7.652 22.783a.548.548 0 01-.39-.158l-1.09-1.083a.545.545 0 010-.774.553.553 0 01.781 0l.7.693 1.786-1.776c.218-.215.566-.215.781 0s.214.563 0 .774l-2.177 2.166a.562.562 0 01-.39.158zm11.446-1.079h-6.565a.55.55 0 110-1.098h6.565a.55.55 0 110 1.098zM7.652 27.478a.548.548 0 01-.39-.162l-1.09-1.083c-.215-.215-.215-.559 0-.774s.563-.215.781 0l.7.693 1.786-1.776a.553.553 0 01.781 0 .547.547 0 010 .777l-2.177 2.163a.566.566 0 01-.39.162zm11.446-1.083h-6.565a.55.55 0 110-1.098h6.565a.55.55 0 110 1.098zM7.652 18.092a.548.548 0 01-.39-.158l-1.09-1.083a.549.549 0 010-.777.56.56 0 01.781 0l.7.696 1.786-1.776a.555.555 0 01.781 0 .543.543 0 010 .774l-2.177 2.166a.562.562 0 01-.39.158zm11.446-1.079h-6.565a.55.55 0 110-1.098h6.565a.55.55 0 110 1.098zm7.94-13.004h-6.495a2.156 2.156 0 00-2.159-1.997h-2.103A2.046 2.046 0 0014.234.004a2.04 2.04 0 00-2.043 2.008h-2.106a2.157 2.157 0 00-2.156 1.997H.731a.734.734 0 00-.735.731v26.528c0 .404.327.731.735.731h26.307a.732.732 0 00.735-.731V4.74a.733.733 0 00-.735-.731zm-17.645.155a.69.69 0 01.693-.689h2.3c.707 0 1.28-.57 1.28-1.269v-.169a.572.572 0 011.143 0v.169c0 .7.573 1.269 1.276 1.269h2.3c.387 0 .696.309.696.689v1.498H9.393V4.164zm16.91 26.373H1.466V5.471h6.456v.921c0 .404.327.731.735.731h11.158a.732.732 0 00.735-.731v-.921h5.749v25.066h.004zM14.235 3.566c.39 0 .707.313.707.703 0 .387-.316.7-.707.7s-.707-.313-.707-.7c0-.39.316-.703.707-.703z"/></symbol></defs></svg>