<svg width="48" height="47" xmlns="http://www.w3.org/2000/svg" xmlns:xlink="http://www.w3.org/1999/xlink" xmlns:svgjs="http://svgjs.com/svgjs" viewBox="0.499 0 47.002 47"><svg xmlns="http://www.w3.org/2000/svg" width="48" height="47" viewBox="1.862 1.363 45.275 45.273" fill="#101012"><path paint-order="stroke fill markers" fill-rule="evenodd" d="M40.724 9.378l3.81 3.811c.226.224.34.523.342.831-.002.31-.116.607-.345.833h.002L20.277 39.108l1.599 1.6 24.257-24.255a3.441 3.441 0 0 0-.001-4.864l-9.223-9.22a3.431 3.431 0 0 0-2.433-1.006c-.875 0-1.762.334-2.433 1.006L7.792 26.622l1.599 1.6L33.645 3.967c.229-.228.524-.342.831-.344.31.002.606.116.833.344l3.814 3.812L16.12 30.782l1.599 1.6L40.724 9.377zM6.377 32.835c-.469-.458-1.02-.826-1.755-.839-.574-.015-1.167.318-1.47.756-.317.434-.445.922-.492 1.443l-.784 9.138-.001-.001a3.06 3.06 0 0 0-.013.298c-.004.817.31 1.593.866 2.141a3.01 3.01 0 0 0 2.133.865h.008c.089 0 .177-.004.268-.01l9.172-.785c.519-.047 1.007-.178 1.44-.495.438-.304.769-.893.755-1.466-.012-.735-.377-1.29-.839-1.757l-9.288-9.288zM4.965 44.371c-.023 0-.06.004-.096.004-.5-.035-.71-.246-.746-.745l-.007-.094h.013l.769-8.982 9.048 9.049-8.981.768z"/></svg></svg>