<svg width="54" height="48" xmlns="http://www.w3.org/2000/svg" xmlns:xlink="http://www.w3.org/1999/xlink" xmlns:svgjs="http://svgjs.com/svgjs" viewBox="0.455 0 53.09 48"><svg xmlns="http://www.w3.org/2000/svg" width="54" height="48" viewBox="1.94 1.39 51.12 46.219" fill="#101012"><path paint-order="stroke fill markers" fill-rule="evenodd" d="M49.667 16.044l-11.628-.003c-.177-3.03-1.04-5.77-2.408-7.883-1.437-2.217-3.529-3.777-5.965-3.955v-.032h-.453-11.412a3.391 3.391 0 0 0-3.328-2.78h-3.11A3.397 3.397 0 0 0 7.97 4.78v5.703h-4.9c-.622 0-1.131.508-1.131 1.131 0 .622.509 1.13 1.13 1.13h4.901v9.422h-4.9c-.622 0-1.131.508-1.131 1.131 0 .622.509 1.133 1.13 1.133h4.901v4.52a3.396 3.396 0 0 0 3.392 3.39h3.11a3.39 3.39 0 0 0 3.151-2.164H29.666v-.034c2.436-.18 4.528-1.737 5.965-3.959 1.369-2.107 2.23-4.85 2.408-7.88h11.628c.614 0 1.13.518 1.13 1.13v19.412c0 .615-.516 1.128-1.13 1.132H24.978a3.395 3.395 0 0 0-3.393 3.39v4.241h2.263l-.003-4.24a1.145 1.145 0 0 1 1.133-1.13h24.689a3.4 3.4 0 0 0 3.391-3.393l.002-19.411a3.398 3.398 0 0 0-3.393-3.391zM15.602 28.95c0 .615-.516 1.13-1.13 1.132h-3.11a1.149 1.149 0 0 1-1.131-1.132V4.782a1.152 1.152 0 0 1 1.132-1.133h3.11c.613.004 1.129.52 1.129 1.133V28.95zm2.309-1.036V6.432h9.493v21.482h-3.2-6.293zm15.824-2.962c-1.156 1.764-2.591 2.764-4.069 2.93V6.464c1.478.167 2.913 1.166 4.069 2.93 1.256 1.927 2.082 4.698 2.08 7.782.002 3.077-.824 5.85-2.08 7.776z"/></svg></svg>