<svg xmlns="http://www.w3.org/2000/svg" xmlns:xlink="http://www.w3.org/1999/xlink" xmlns:svgjs="http://svgjs.com/svgjs"><symbol id="service-1" viewBox="0.499 0 47.002 47"><svg xmlns="http://www.w3.org/2000/svg" width="48" height="47" viewBox="1.862 1.363 45.275 45.273" fill="#101012"/><path paint-order="stroke fill markers" fill-rule="evenodd" d="M40.724 9.378l3.81 3.811c.226.224.34.523.342.831-.002.31-.116.607-.345.833h.002L20.277 39.108l1.599 1.6 24.257-24.255a3.441 3.441 0 0 0-.001-4.864l-9.223-9.22a3.431 3.431 0 0 0-2.433-1.006c-.875 0-1.762.334-2.433 1.006L7.792 26.622l1.599 1.6L33.645 3.967c.229-.228.524-.342.831-.344.31.002.606.116.833.344l3.814 3.812L16.12 30.782l1.599 1.6L40.724 9.377zM6.377 32.835c-.469-.458-1.02-.826-1.755-.839-.574-.015-1.167.318-1.47.756-.317.434-.445.922-.492 1.443l-.784 9.138-.001-.001a3.06 3.06 0 0 0-.013.298c-.004.817.31 1.593.866 2.141a3.01 3.01 0 0 0 2.133.865h.008c.089 0 .177-.004.268-.01l9.172-.785c.519-.047 1.007-.178 1.44-.495.438-.304.769-.893.755-1.466-.012-.735-.377-1.29-.839-1.757l-9.288-9.288zM4.965 44.371c-.023 0-.06.004-.096.004-.5-.035-.71-.246-.746-.745l-.007-.094h.013l.769-8.982 9.048 9.049-8.981.768z"/></symbol><symbol id="service-2" viewBox="0.455 0 53.09 48"><svg xmlns="http://www.w3.org/2000/svg" width="54" height="48" viewBox="1.94 1.39 51.12 46.219" fill="#101012"/><path paint-order="stroke fill markers" fill-rule="evenodd" d="M49.667 16.044l-11.628-.003c-.177-3.03-1.04-5.77-2.408-7.883-1.437-2.217-3.529-3.777-5.965-3.955v-.032h-.453-11.412a3.391 3.391 0 0 0-3.328-2.78h-3.11A3.397 3.397 0 0 0 7.97 4.78v5.703h-4.9c-.622 0-1.131.508-1.131 1.131 0 .622.509 1.13 1.13 1.13h4.901v9.422h-4.9c-.622 0-1.131.508-1.131 1.131 0 .622.509 1.133 1.13 1.133h4.901v4.52a3.396 3.396 0 0 0 3.392 3.39h3.11a3.39 3.39 0 0 0 3.151-2.164H29.666v-.034c2.436-.18 4.528-1.737 5.965-3.959 1.369-2.107 2.23-4.85 2.408-7.88h11.628c.614 0 1.13.518 1.13 1.13v19.412c0 .615-.516 1.128-1.13 1.132H24.978a3.395 3.395 0 0 0-3.393 3.39v4.241h2.263l-.003-4.24a1.145 1.145 0 0 1 1.133-1.13h24.689a3.4 3.4 0 0 0 3.391-3.393l.002-19.411a3.398 3.398 0 0 0-3.393-3.391zM15.602 28.95c0 .615-.516 1.13-1.13 1.132h-3.11a1.149 1.149 0 0 1-1.131-1.132V4.782a1.152 1.152 0 0 1 1.132-1.133h3.11c.613.004 1.129.52 1.129 1.133V28.95zm2.309-1.036V6.432h9.493v21.482h-3.2-6.293zm15.824-2.962c-1.156 1.764-2.591 2.764-4.069 2.93V6.464c1.478.167 2.913 1.166 4.069 2.93 1.256 1.927 2.082 4.698 2.08 7.782.002 3.077-.824 5.85-2.08 7.776z"/></symbol><symbol id="service-3" viewBox="0.659 0 44.681 46"><svg xmlns="http://www.w3.org/2000/svg" width="46" height="46" viewBox="1.769 1.127 43.463 44.745" fill="#101012"/><path paint-order="stroke fill markers" fill-rule="evenodd" d="M24.27 32.823v-2.787h-2.26v2.842a6.567 6.567 0 0 0-5.09 4.992H1.976v2.262h14.837a6.561 6.561 0 0 0 6.51 5.74c3.344 0 6.098-2.505 6.503-5.74h15.198v-2.26H29.72a6.562 6.562 0 0 0-5.449-5.049zm-.948 10.79a4.312 4.312 0 0 1-4.304-4.304 4.31 4.31 0 0 1 4.304-4.3 4.31 4.31 0 0 1 4.3 4.3 4.312 4.312 0 0 1-4.3 4.304zm18.32-42.486H5.357a3.598 3.598 0 0 0-3.59 3.592v20.193a3.598 3.598 0 0 0 3.59 3.591h36.283a3.6 3.6 0 0 0 3.59-3.59V4.718a3.6 3.6 0 0 0-3.59-3.592zm1.33 23.785a1.349 1.349 0 0 1-1.33 1.328H5.357a1.347 1.347 0 0 1-1.33-1.328L4.03 4.72c0-.724.604-1.328 1.328-1.33l36.283.002c.724 0 1.327.604 1.331 1.328l-.004 20.193h.004z"/></symbol><symbol id="dribble" viewBox="0 0.499 19 19.002"><svg xmlns="http://www.w3.org/2000/svg" width="19" height="20" viewBox="1.104 1.638 17.561 17.563" fill="#fff"/><path paint-order="stroke fill markers" fill-rule="evenodd" d="M18.488 8.65a8.824 8.824 0 0 0-.513-1.648 8.612 8.612 0 0 0-.81-1.493 8.743 8.743 0 0 0-2.37-2.37 8.674 8.674 0 0 0-3.14-1.32 8.786 8.786 0 0 0-9.86 5.183 8.756 8.756 0 0 0-.512 5.185 8.67 8.67 0 0 0 .513 1.649 8.699 8.699 0 0 0 1.88 2.793c.398.397.835.756 1.3 1.07a8.708 8.708 0 0 0 3.141 1.323 8.798 8.798 0 0 0 5.187-.512 8.674 8.674 0 0 0 1.492-.81 8.743 8.743 0 0 0 2.37-2.37 8.735 8.735 0 0 0 1.5-4.912c0-.594-.06-1.19-.178-1.768zm-1.106 1.694c-.109-.022-2.647-.569-5.222-.245l-.162-.388c-.157-.367-.325-.73-.5-1.088 2.962-1.207 4.164-2.946 4.179-2.967a7.466 7.466 0 0 1 1.705 4.688zM14.839 4.79c-.019.03-1.087 1.654-3.918 2.717a37.89 37.89 0 0 0-2.802-4.376 7.48 7.48 0 0 1 6.72 1.658zm-6.75-1.653v.002l-.024.004.025-.006zm-1.403.498c.1.135 1.487 2.014 2.784 4.32-3.6.958-6.724.92-6.923.917a7.514 7.514 0 0 1 4.14-5.237zm-4.3 6.782c0-.08.005-.156.007-.237.132.004 3.838.088 7.698-1.068.216.42.422.848.61 1.276a5.49 5.49 0 0 0-.297.09c-4.048 1.306-6.098 4.947-6.098 4.947l.002.006a7.482 7.482 0 0 1-1.921-5.014zm7.5 7.5A7.462 7.462 0 0 1 5.109 16.2c.098.08.167.131.167.131s1.438-3.135 5.885-4.684l.05-.015c1.056 2.742 1.491 5.037 1.601 5.693a7.45 7.45 0 0 1-2.926.594zm4.19-1.28c-.077-.452-.476-2.654-1.46-5.357 2.421-.385 4.519.278 4.674.328a7.498 7.498 0 0 1-3.215 5.03z"/></symbol><symbol id="facebook" viewBox="0 0 8 18">
  <path d="M689,1340.83h-2.724v-1.87a0.75,0.75,0,0,1,.757-0.87h1.923v-3.08l-2.648-.01c-2.939,0-3.608,2.3-3.608,3.77v2.06H681v3.18h1.7V1353h3.576v-8.99h2.412Z" transform="translate(-681 -1335)"/>
</symbol><symbol id="linkedIn" viewBox="0 0 16 16">
  <path d="M1073.6,1343.22v-0.03c0,0.01-.01.02-0.01,0.03h0.01Zm6.22-7.22h-13.64a1.163,1.163,0,0,0-1.18,1.15v13.7a1.163,1.163,0,0,0,1.18,1.15h13.64a1.163,1.163,0,0,0,1.18-1.15v-13.7A1.163,1.163,0,0,0,1079.82,1336Zm-9.97,13.39h-2.42v-7.22h2.42v7.22Zm-1.21-8.21h-0.01a1.244,1.244,0,0,1-1.34-1.25A1.365,1.365,0,1,1,1068.64,1341.18Zm9.92,8.21h-2.41v-3.86c0-.97-0.35-1.64-1.23-1.64a1.339,1.339,0,0,0-1.24.88,1.756,1.756,0,0,0-.08.59v4.03h-2.41s0.03-6.54,0-7.22h2.41v1.02a2.423,2.423,0,0,1,2.18-1.19c1.59,0,2.78,1.03,2.78,3.25v4.14Z" transform="translate(-1065 -1336)"/>
</symbol><symbol id="twitter" viewBox="0 0 20 13.81">
  <path d="M735,1339.28a0.1,0.1,0,0,1-.038-0.03,3.636,3.636,0,0,0-2.637-.94l-0.031-.07h0.019a3.2,3.2,0,0,0,1.62-.63,0.2,0.2,0,0,0-.211-0.3,5.316,5.316,0,0,0-1.266.29q0.72-.435.561-0.6a2.523,2.523,0,0,0-1.521.69,0.753,0.753,0,0,0,.224-0.52,3.959,3.959,0,0,0-.673.53,10.371,10.371,0,0,0-.979,1.19l-0.012.03a10.225,10.225,0,0,0-1.36,2.98l-0.1.07-0.019.02a4.98,4.98,0,0,0-1.4-1.15,17.009,17.009,0,0,0-2.308-1.16,19.886,19.886,0,0,0-2.936-1.16,2.763,2.763,0,0,0,1.615,2.49v0.02a3.411,3.411,0,0,0-1.1.15q0.1,1.455,2.182,2.01l-0.006.02a1.638,1.638,0,0,0-1.34.52,2.431,2.431,0,0,0,2.425,1.21,1.575,1.575,0,0,0-.53.37,0.737,0.737,0,0,0-.212.74,1.353,1.353,0,0,0,1.359.6h0l0.038,0.04c-0.007.01-.013,0.01-0.019,0.02a5.213,5.213,0,0,1-4.134,1.51l-0.025.01a5.372,5.372,0,0,1-3.179-1.34,9.782,9.782,0,0,0,4.551,3.39,11.389,11.389,0,0,0,6.465.14h0.038a10.2,10.2,0,0,0,5.317-3.5,6.889,6.889,0,0,0,1.266-2.66,2.665,2.665,0,0,0,2.363-.89l-0.012-.02a4.94,4.94,0,0,1-2.126-.12v-0.11h0.006c1.154-.12,1.833-0.47,2.051-1.06a3.371,3.371,0,0,1-2.382.03A4.77,4.77,0,0,0,735,1339.28Z" transform="translate(-719 -1337)"/>
</symbol></svg>