<svg width="65" height="57" xmlns="http://www.w3.org/2000/svg" xmlns:xlink="http://www.w3.org/1999/xlink" xmlns:svgjs="http://svgjs.com/svgjs" viewBox="0 0.079 65 56.843"><svg xmlns="http://www.w3.org/2000/svg" width="65" height="57" viewBox="1.331 1.994 63.046 55.134" fill="#fff"><path fill="#fff" paint-order="stroke fill markers" fill-rule="evenodd" d="M38.108 12.713H27.6l5.254 9.192 5.254-9.192zm-11.822.767l-5.254 9.191H31.54l-5.254-9.191zm18.39 9.191l-5.254-9.191-5.254 9.191h10.508zm-10.508 1.53l5.254 9.189 5.254-9.188H34.168zm-13.136 0l5.254 9.189 5.254-9.188H21.032zm-6.567 9.953H24.97l-5.253-9.187-5.253 9.187zm36.778 0l-5.253-9.187-5.252 9.187h10.505zM32.854 1.994l-5.254 9.19h10.508l-5.254-9.19zm13.136 42.88l5.253-9.188H40.738l5.252 9.188zm-26.272 0l5.253-9.188H14.465l5.253 9.188zm-11.821.767h10.507l-5.253-9.19-5.254 9.19zm49.914 0l-5.254-9.19-5.254 9.19h10.508zm-10.508 1.53l5.254 9.188 5.254-9.187H47.303zm-13.135 0l5.254 9.188 5.254-9.187H34.168zM13.151 56.36l5.253-9.187H7.897l5.254 9.187zm-11.82.769h10.505l-5.254-9.189-5.25 9.189zm26.27 0h10.507l-5.254-9.189-5.254 9.189zm13.137 0h10.505l-5.253-9.189-5.252 9.189zm18.387-9.189l-5.252 9.189h10.504l-5.252-9.189z"/></svg></svg>