<svg xmlns="http://www.w3.org/2000/svg" xmlns:xlink="http://www.w3.org/1999/xlink" xmlns:svgjs="http://svgjs.com/svgjs"><symbol id="folder" viewBox="0.085 0 52.83 37"><svg xmlns="http://www.w3.org/2000/svg" width="53" height="37" viewBox="1.738 1.335 50.901 35.649"/><path paint-order="stroke fill markers" fill-rule="evenodd" d="M10 14.245c1.002-2.058 3.475-3.608 5.742-3.608h26.207V8.983c0-1.364-1.107-2.482-2.458-2.482H28.675V5.058c0-2.056-1.655-3.723-3.684-3.723H18.7a3.64 3.64 0 0 0-2.607 1.095 3.694 3.694 0 0 0-1.082 2.628v1.444H4.196C2.843 6.501 1.738 7.62 1.738 8.983v22.164L10 14.245zm7.47-9.187c0-.328.132-.64.362-.875.23-.238.54-.368.866-.368h6.29c.679 0 1.23.555 1.23 1.243v1.444H17.47V5.058zM42.92 34.763c-.595 1.221-2.192 2.22-3.543 2.22H4.08c-1.35 0-1.968-1.001-1.369-2.22l9.492-19.422c.593-1.223 2.189-2.226 3.539-2.226H51.04c1.354 0 1.969 1.003 1.371 2.226l-9.49 19.422z"/></symbol><symbol id="gear" viewBox="0 0 45 44.999"><svg xmlns="http://www.w3.org/2000/svg" width="45" height="45" viewBox="1.36 1.067 43.567 43.566"/><path paint-order="stroke fill markers" fill-rule="evenodd" d="M44.927 22.85c0-1.62-1.166-3.35-2.605-3.857-1.44-.51-2.835-1.758-3.24-2.742-.407-.982-.301-2.855.354-4.234.656-1.38.259-3.426-.886-4.574-1.146-1.146-3.193-1.541-4.573-.885-1.38.656-3.25.764-4.231.357-.981-.405-2.229-1.803-2.74-3.242-.513-1.439-2.242-2.606-3.862-2.606s-3.35 1.167-3.862 2.606c-.512 1.44-1.76 2.836-2.74 3.242-.982.407-2.852.3-4.232-.357-1.378-.656-3.427-.261-4.573.885-1.145 1.148-1.542 3.195-.886 4.574.656 1.38.76 3.25.353 4.233-.408.982-1.799 2.233-3.238 2.743-1.44.508-2.606 2.237-2.606 3.857s1.166 3.349 2.606 3.86c1.44.513 2.832 1.764 3.24 2.744.408.98.301 2.85-.355 4.23-.656 1.378-.26 3.426.886 4.571 1.146 1.147 3.193 1.544 4.573.887 1.38-.656 3.25-.761 4.231-.353.982.407 2.23 1.805 2.741 3.243.512 1.436 2.241 2.601 3.862 2.601 1.62 0 3.35-1.165 3.861-2.6.512-1.439 1.758-2.837 2.74-3.247.98-.408 2.852-.3 4.232.356 1.379.657 3.427.26 4.573-.887 1.145-1.145 1.542-3.193.886-4.572-.655-1.38-.763-3.25-.357-4.23.406-.981 1.803-2.23 3.243-2.742 1.439-.512 2.605-2.24 2.605-3.861zm-21.783 7.992a7.984 7.984 0 0 1-7.994-7.983 7.988 7.988 0 0 1 7.994-7.994c4.41 0 7.984 3.575 7.984 7.994a7.981 7.981 0 0 1-7.984 7.983z"/></symbol><symbol id="icon-cart" viewBox="0.128 0 18.744 25"><svg xmlns="http://www.w3.org/2000/svg" width="19" height="25" viewBox="1.003 1.998 17.991 23.996"/><path paint-order="stroke fill markers" fill-rule="evenodd" d="M15.995 4.999h-1.499c0-1.657-2.013-3-4.497-3-2.485 0-4.498 1.343-4.498 3h-1.5a2.999 2.999 0 0 0-2.998 2.998v14.998a3 3 0 0 0 2.999 3h11.993a3 3 0 0 0 3-3V7.997a2.999 2.999 0 0 0-3-2.998zM10 3.499c1.656 0 2.998.463 2.998 1.5H7c0-1.037 1.343-1.5 2.999-1.5zm7.496 19.496a1.5 1.5 0 0 1-1.5 1.5H4.002c-.828 0-1.5-.672-1.5-1.5v-1.5h14.993v1.5zm0-3H2.502V7.997a1.5 1.5 0 0 1 1.5-1.5H5.5v4.5h1.5v-4.5h5.996v4.5h1.5v-4.5h1.498a1.5 1.5 0 0 1 1.5 1.5v11.998z"/></symbol><symbol id="icon-search" viewBox="0 0 24.999 25"><svg xmlns="http://www.w3.org/2000/svg" width="25" height="25" viewBox="1.001 1.998 23.988 23.989"/><path paint-order="stroke fill markers" fill-rule="evenodd" d="M24.762 24.681l-6.193-6.095c1.621-1.761 2.618-4.092 2.618-6.657-.001-5.486-4.52-9.931-10.094-9.931S1.001 6.443 1.001 11.928c0 5.488 4.518 9.934 10.092 9.934 2.409 0 4.618-.834 6.353-2.218l6.217 6.12a.785.785 0 0 0 1.098 0 .758.758 0 0 0 .001-1.083zm-13.669-4.347c-4.716 0-8.54-3.762-8.54-8.405 0-4.641 3.824-8.404 8.54-8.404 4.717 0 8.54 3.763 8.54 8.404 0 4.643-3.823 8.405-8.54 8.405z"/></symbol><symbol id="layers" viewBox="0.066 0 44.868 41"><svg xmlns="http://www.w3.org/2000/svg" width="45" height="41" viewBox="1.414 1.106 42.874 39.178"/><path paint-order="stroke fill markers" fill-rule="evenodd" d="M22.85 1.106L1.415 12.666 22.85 24.227l21.436-11.561-21.436-11.56zm0 26.852L5.4 18.548l-3.985 2.149L22.85 32.253l21.436-11.556-3.985-2.15-17.451 9.41zm0 8.027L5.4 26.573l-3.985 2.148L22.85 40.283l21.436-11.562-3.985-2.148-17.451 9.412z"/></symbol><symbol id="pencil" viewBox="0.001 0 49.997 50"><svg xmlns="http://www.w3.org/2000/svg" width="50" height="50" viewBox="1.534 1.861 47.6 47.602"/><path paint-order="stroke fill markers" fill-rule="evenodd" d="M48.668 18.47a1.587 1.587 0 0 0-2.248 0L32.573 32.314l-19.467 8.573-3-3 8.577-19.465L32.527 4.576a1.59 1.59 0 1 0-2.248-2.249L16.01 16.591 1.534 49.463l32.868-14.478 14.266-14.268a1.588 1.588 0 0 0 0-2.247zM28.495 29.466a1.594 1.594 0 0 0 2.25 0l13.332-13.332a1.587 1.587 0 0 0 0-2.25 1.585 1.585 0 0 0-2.25 0L28.495 27.217c-.62.62-.62 1.627 0 2.25zm-3.48-3.48a1.592 1.592 0 0 0 2.25 0l13.333-13.333a1.59 1.59 0 1 0-2.25-2.25L25.015 23.735a1.592 1.592 0 0 0 0 2.25zm-3.48-3.484c.31.312.718.466 1.124.466.406 0 .814-.154 1.125-.466l13.333-13.33a1.588 1.588 0 0 0 0-2.25 1.586 1.586 0 0 0-2.25 0L21.534 20.253c-.62.62-.62 1.63 0 2.25z"/></symbol><symbol id="logos" viewBox="0 0.079 65 56.843"><svg xmlns="http://www.w3.org/2000/svg" width="65" height="57" viewBox="1.331 1.994 63.046 55.134" fill="#fff"/><path fill="#fff" paint-order="stroke fill markers" fill-rule="evenodd" d="M38.108 12.713H27.6l5.254 9.192 5.254-9.192zm-11.822.767l-5.254 9.191H31.54l-5.254-9.191zm18.39 9.191l-5.254-9.191-5.254 9.191h10.508zm-10.508 1.53l5.254 9.189 5.254-9.188H34.168zm-13.136 0l5.254 9.189 5.254-9.188H21.032zm-6.567 9.953H24.97l-5.253-9.187-5.253 9.187zm36.778 0l-5.253-9.187-5.252 9.187h10.505zM32.854 1.994l-5.254 9.19h10.508l-5.254-9.19zm13.136 42.88l5.253-9.188H40.738l5.252 9.188zm-26.272 0l5.253-9.188H14.465l5.253 9.188zm-11.821.767h10.507l-5.253-9.19-5.254 9.19zm49.914 0l-5.254-9.19-5.254 9.19h10.508zm-10.508 1.53l5.254 9.188 5.254-9.187H47.303zm-13.135 0l5.254 9.188 5.254-9.187H34.168zM13.151 56.36l5.253-9.187H7.897l5.254 9.187zm-11.82.769h10.505l-5.254-9.189-5.25 9.189zm26.27 0h10.507l-5.254-9.189-5.254 9.189zm13.137 0h10.505l-5.253-9.189-5.252 9.189zm18.387-9.189l-5.252 9.189h10.504l-5.252-9.189z"/></symbol></svg>