<svg xmlns="http://www.w3.org/2000/svg" xmlns:xlink="http://www.w3.org/1999/xlink" xmlns:svgjs="http://svgjs.com/svgjs"><symbol id="clients" viewBox="0 0.042 49 44.916"><svg xmlns="http://www.w3.org/2000/svg" width="45" height="45" viewBox="0 0 44 44"/><path paint-order="stroke fill markers" fill-rule="evenodd" d="M20.937 32.25c5.688 0 10.313-5.63 10.313-12.547 0-6.92-4.625-12.547-10.313-12.547-2.813 0-5.44 1.346-7.394 3.788-1.883 2.354-2.92 5.464-2.918 8.759 0 6.92 4.625 12.547 10.312 12.547zm0-22.344c4.17 0 7.563 4.394 7.563 9.797 0 5.403-3.393 9.797-7.563 9.797-4.169 0-7.562-4.394-7.565-9.797 0-5.403 3.393-9.797 7.565-9.797zm8.661 20.969a1.374 1.374 0 1 0 0 2.75c4.701 0 8.527 3.825 8.527 8.528 0 .602-.494 1.097-1.101 1.097H4.848a1.1 1.1 0 0 1-1.098-1.097c0-4.703 3.824-8.528 8.524-8.528a1.374 1.374 0 1 0 0-2.75C6.057 30.875 1 35.935 1 42.153A3.852 3.852 0 0 0 4.848 46h32.176a3.854 3.854 0 0 0 3.851-3.847c0-6.219-5.06-11.278-11.277-11.278zM21.943 5.629c.984-.584 2.033-.878 3.12-.878 4.169 0 7.562 4.395 7.562 9.796 0 .969-.107 1.92-.32 2.828a1.373 1.373 0 1 0 2.677.629c.259-1.115.393-2.278.393-3.457C35.375 7.629 30.75 2 25.062 2a8.883 8.883 0 0 0-4.518 1.26 1.375 1.375 0 0 0 1.399 2.369zM34 25.375a1.374 1.374 0 1 0 0 2.75c4.701 0 8.25 3.918 8.25 8.618 0 .156-.03.31-.094.448a1.377 1.377 0 0 0 1.257 1.934c.526 0 1.028-.306 1.257-.817.218-.494.33-1.02.33-1.568 0-6.213-4.783-11.365-11-11.365z"/></symbol><symbol id="coffee" viewBox="0 0.042 49 44.916"><svg xmlns="http://www.w3.org/2000/svg" width="49" height="45" viewBox="2 2.001 48 43.999"/><path paint-order="stroke fill markers" fill-rule="evenodd" d="M48.043 44.749c0 .69-.552 1.25-1.234 1.25H3.234C2.553 46 2 45.44 2 44.75c0-.691.553-1.251 1.234-1.251h43.575c.682 0 1.234.56 1.234 1.25zM23.77 24.213a1.22 1.22 0 0 0 1.744-.061 1.263 1.263 0 0 0-.06-1.768c-2.116-2.002-1.663-6.07.155-8.37 2.467-3.12 3.01-8.683-.155-11.677a1.223 1.223 0 0 0-1.744.061 1.263 1.263 0 0 0 .06 1.768c1.9 1.798 1.858 5.823-.087 8.284-1.278 1.617-2.042 3.784-2.096 5.946-.06 2.363.716 4.429 2.183 5.817zM50 21.614v2.4c0 3.44-2.76 6.24-6.153 6.24H41.09c-1.87 5.27-6.85 9.05-12.686 9.05H21.64c-7.431 0-13.476-6.129-13.476-13.662v-12.41c0-.691.552-1.251 1.234-1.251h7.915c1.606-2.476 1.535-6.127-.25-7.815a1.263 1.263 0 0 1-.06-1.768 1.222 1.222 0 0 1 1.745-.06c3.164 2.993 2.621 8.556.155 11.676-1.819 2.3-2.272 6.369-.155 8.37.498.471.525 1.263.06 1.768a1.223 1.223 0 0 1-1.744.061c-1.468-1.388-2.243-3.454-2.184-5.817.034-1.347.343-2.696.881-3.913h-5.13v11.16c0 6.153 4.939 11.159 11.009 11.159h6.766c6.07 0 11.008-5.006 11.008-11.16v-11.16h-9.278c-.682 0-1.234-.56-1.234-1.25 0-.691.552-1.251 1.234-1.251h10.512c.682 0 1.234.56 1.234 1.25v2.144h1.965c3.393 0 6.154 2.799 6.154 6.24zm-2.467 0c0-2.06-1.654-3.737-3.686-3.737H41.88v9.874h1.965c2.032 0 3.686-1.676 3.686-3.737v-2.4z"/></symbol><symbol id="folder" viewBox="0.085 0 52.83 37"><svg xmlns="http://www.w3.org/2000/svg" width="53" height="37" viewBox="1.738 1.335 50.901 35.649"/><path paint-order="stroke fill markers" fill-rule="evenodd" d="M10 14.245c1.002-2.058 3.475-3.608 5.742-3.608h26.207V8.983c0-1.364-1.107-2.482-2.458-2.482H28.675V5.058c0-2.056-1.655-3.723-3.684-3.723H18.7a3.64 3.64 0 0 0-2.607 1.095 3.694 3.694 0 0 0-1.082 2.628v1.444H4.196C2.843 6.501 1.738 7.62 1.738 8.983v22.164L10 14.245zm7.47-9.187c0-.328.132-.64.362-.875.23-.238.54-.368.866-.368h6.29c.679 0 1.23.555 1.23 1.243v1.444H17.47V5.058zM42.92 34.763c-.595 1.221-2.192 2.22-3.543 2.22H4.08c-1.35 0-1.968-1.001-1.369-2.22l9.492-19.422c.593-1.223 2.189-2.226 3.539-2.226H51.04c1.354 0 1.969 1.003 1.371 2.226l-9.49 19.422z"/></symbol><symbol id="gear" viewBox="0 0 45 44.999"><svg xmlns="http://www.w3.org/2000/svg" width="45" height="45" viewBox="1.36 1.067 43.567 43.566"/><path paint-order="stroke fill markers" fill-rule="evenodd" d="M44.927 22.85c0-1.62-1.166-3.35-2.605-3.857-1.44-.51-2.835-1.758-3.24-2.742-.407-.982-.301-2.855.354-4.234.656-1.38.259-3.426-.886-4.574-1.146-1.146-3.193-1.541-4.573-.885-1.38.656-3.25.764-4.231.357-.981-.405-2.229-1.803-2.74-3.242-.513-1.439-2.242-2.606-3.862-2.606s-3.35 1.167-3.862 2.606c-.512 1.44-1.76 2.836-2.74 3.242-.982.407-2.852.3-4.232-.357-1.378-.656-3.427-.261-4.573.885-1.145 1.148-1.542 3.195-.886 4.574.656 1.38.76 3.25.353 4.233-.408.982-1.799 2.233-3.238 2.743-1.44.508-2.606 2.237-2.606 3.857s1.166 3.349 2.606 3.86c1.44.513 2.832 1.764 3.24 2.744.408.98.301 2.85-.355 4.23-.656 1.378-.26 3.426.886 4.571 1.146 1.147 3.193 1.544 4.573.887 1.38-.656 3.25-.761 4.231-.353.982.407 2.23 1.805 2.741 3.243.512 1.436 2.241 2.601 3.862 2.601 1.62 0 3.35-1.165 3.861-2.6.512-1.439 1.758-2.837 2.74-3.247.98-.408 2.852-.3 4.232.356 1.379.657 3.427.26 4.573-.887 1.145-1.145 1.542-3.193.886-4.572-.655-1.38-.763-3.25-.357-4.23.406-.981 1.803-2.23 3.243-2.742 1.439-.512 2.605-2.24 2.605-3.861zm-21.783 7.992a7.984 7.984 0 0 1-7.994-7.983 7.988 7.988 0 0 1 7.994-7.994c4.41 0 7.984 3.575 7.984 7.994a7.981 7.981 0 0 1-7.984 7.983z"/></symbol><symbol id="icon-cart" viewBox="0.128 0 18.744 25"><svg xmlns="http://www.w3.org/2000/svg" width="19" height="25" viewBox="1.003 1.998 17.991 23.996"/><path paint-order="stroke fill markers" fill-rule="evenodd" d="M15.995 4.999h-1.499c0-1.657-2.013-3-4.497-3-2.485 0-4.498 1.343-4.498 3h-1.5a2.999 2.999 0 0 0-2.998 2.998v14.998a3 3 0 0 0 2.999 3h11.993a3 3 0 0 0 3-3V7.997a2.999 2.999 0 0 0-3-2.998zM10 3.499c1.656 0 2.998.463 2.998 1.5H7c0-1.037 1.343-1.5 2.999-1.5zm7.496 19.496a1.5 1.5 0 0 1-1.5 1.5H4.002c-.828 0-1.5-.672-1.5-1.5v-1.5h14.993v1.5zm0-3H2.502V7.997a1.5 1.5 0 0 1 1.5-1.5H5.5v4.5h1.5v-4.5h5.996v4.5h1.5v-4.5h1.498a1.5 1.5 0 0 1 1.5 1.5v11.998z"/></symbol><symbol id="icon-search" viewBox="0 0 24.999 25"><svg xmlns="http://www.w3.org/2000/svg" width="25" height="25" viewBox="1.001 1.998 23.988 23.989"/><path paint-order="stroke fill markers" fill-rule="evenodd" d="M24.762 24.681l-6.193-6.095c1.621-1.761 2.618-4.092 2.618-6.657-.001-5.486-4.52-9.931-10.094-9.931S1.001 6.443 1.001 11.928c0 5.488 4.518 9.934 10.092 9.934 2.409 0 4.618-.834 6.353-2.218l6.217 6.12a.785.785 0 0 0 1.098 0 .758.758 0 0 0 .001-1.083zm-13.669-4.347c-4.716 0-8.54-3.762-8.54-8.405 0-4.641 3.824-8.404 8.54-8.404 4.717 0 8.54 3.763 8.54 8.404 0 4.643-3.823 8.405-8.54 8.405z"/></symbol><symbol id="launches" viewBox="0 0.095 55 44.81"><svg xmlns="http://www.w3.org/2000/svg" width="55" height="45" viewBox="1.003 1.003 53.995 43.992"/><path paint-order="stroke fill markers" fill-rule="evenodd" d="M53.31 41.611H2.69a1.69 1.69 0 0 0-1.687 1.693 1.69 1.69 0 0 0 1.688 1.691h50.62a1.69 1.69 0 0 0 1.687-1.691 1.69 1.69 0 0 0-1.688-1.693zM29.688 7.771V4.387h3.375a1.69 1.69 0 0 0 1.687-1.692 1.69 1.69 0 0 0-1.687-1.692H22.939a1.69 1.69 0 0 0-1.688 1.692 1.69 1.69 0 0 0 1.688 1.692h3.375s-.013 3.523 0 3.384c-14.12.878-25.31 12.692-25.31 27.072v1.692a1.69 1.69 0 0 0 1.687 1.692h50.62a1.69 1.69 0 0 0 1.687-1.692v-1.692c0-14.38-11.19-26.194-25.31-27.072zM4.378 34.843c0-13.082 10.576-23.688 23.623-23.688s23.622 10.606 23.622 23.688H4.378z"/></symbol><symbol id="layers" viewBox="0.066 0 44.868 41"><svg xmlns="http://www.w3.org/2000/svg" width="45" height="41" viewBox="1.414 1.106 42.874 39.178"/><path paint-order="stroke fill markers" fill-rule="evenodd" d="M22.85 1.106L1.415 12.666 22.85 24.227l21.436-11.561-21.436-11.56zm0 26.852L5.4 18.548l-3.985 2.149L22.85 32.253l21.436-11.556-3.985-2.15-17.451 9.41zm0 8.027L5.4 26.573l-3.985 2.148L22.85 40.283l21.436-11.562-3.985-2.148-17.451 9.412z"/></symbol><symbol id="likes" viewBox="0 0.042 49 44.916"><svg xmlns="http://www.w3.org/2000/svg" width="45" height="45" viewBox="2 2 44 44"/><path paint-order="stroke fill markers" fill-rule="evenodd" d="M32.25 2c-.424 0-.847.026-1.268.064-.154.014-.306.036-.459.057a12.918 12.918 0 0 0-1.95.393c-.198.055-.396.109-.59.172-.178.058-.35.127-.524.193-.46.172-.908.366-1.343.582-.086.042-.176.081-.26.127-.229.121-.449.255-.672.388-.12.074-.244.144-.365.222a13.64 13.64 0 0 0-.628.434c-.062.045-.128.086-.191.132A13.706 13.706 0 0 0 15.75 2C8.168 2 2 8.166 2 15.75c0 12.445 8.002 23.702 21.406 30.113a1.368 1.368 0 0 0 1.188 0C37.997 39.453 46 28.195 46 15.75 46 8.166 39.83 2 32.25 2zM24 43.097C11.934 37.107 4.75 26.927 4.75 15.75c0-6.066 4.935-11 11-11 2.219 0 4.368.684 6.19 1.933-2.135 2.424-3.44 5.592-3.44 9.067a1.374 1.374 0 1 0 2.75 0c0-3.274 1.446-6.211 3.723-8.227.211-.188.432-.366.654-.536.051-.036.101-.075.152-.113a10.754 10.754 0 0 1 .864-.57c.221-.133.448-.258.678-.373a11.148 11.148 0 0 1 .912-.41c.099-.04.2-.076.304-.113.214-.077.428-.15.646-.212.133-.038.262-.071.395-.103.197-.05.392-.1.593-.14.182-.033.366-.057.548-.084.156-.023.312-.05.47-.066.35-.032.704-.053 1.061-.053 6.065 0 11 4.934 11 11 0 11.177-7.184 21.358-19.25 27.347zM32.25 7.5a1.375 1.375 0 0 0 0 2.75c3.033 0 5.5 2.466 5.5 5.5a1.375 1.375 0 0 0 2.75 0c0-4.55-3.7-8.25-8.25-8.25z"/></symbol><symbol id="link" viewBox="0.002 0 26.996 27"><svg xmlns="http://www.w3.org/2000/svg" width="27" height="27" viewBox="1.682 1.69 24.632 24.636"/><path paint-order="stroke fill markers" fill-rule="evenodd" d="M24.5 3.494c-2.404-2.405-6.341-2.405-8.744 0l-4.721 4.723a7.068 7.068 0 0 1 4.908.376l2.454-2.456a2.447 2.447 0 1 1 3.46 3.462l-3.085 3.087-2.028 2.029a2.446 2.446 0 0 1-3.46 0l-2.641 2.644a6.038 6.038 0 0 0 2.079 1.365 6.24 6.24 0 0 0 6.153-.905c.17-.136.358-.29.511-.46l3.187-3.19 1.926-1.927c2.42-2.405 2.42-6.327 0-8.748zm-12.562 16.03l-2.352 2.354a2.447 2.447 0 1 1-3.46-3.462l5.113-5.115a2.446 2.446 0 0 1 3.46 0l2.642-2.645a6.012 6.012 0 0 0-2.08-1.363 6.191 6.191 0 0 0-6.425 1.142c-.085.068-.17.154-.239.221l-5.113 5.118c-2.403 2.404-2.403 6.343 0 8.747 2.403 2.406 6.34 2.406 8.744 0l4.618-4.672c-2.351.545-2.897.478-4.908-.325z"/></symbol><symbol id="magnifier" viewBox="0.128 0 26.745 26"><svg xmlns="http://www.w3.org/2000/svg" width="27" height="26" viewBox="1.777 1.186 25.161 24.46"/><path paint-order="stroke fill markers" fill-rule="evenodd" d="M12.304 5.082c-.726 0-1.315.58-1.315 1.295 0 .717.589 1.297 1.315 1.297 1.607 0 3.043.885 3.748 2.309.228.461.695.728 1.182.728.195 0 .39-.043.576-.13.654-.314.925-1.09.607-1.734-1.15-2.322-3.492-3.765-6.113-3.765zm14.152 17.8l-4.383-4.319a10.834 10.834 0 0 0 2.068-6.36c0-6.075-5.016-11.017-11.182-11.017S1.777 6.128 1.777 12.202 6.793 23.218 12.96 23.218c2.576 0 4.943-.87 6.836-2.317l4.335 4.27a1.65 1.65 0 0 0 1.163.475c.421 0 .842-.157 1.163-.474a1.602 1.602 0 0 0 0-2.29zM4.41 12.201c0-4.645 3.836-8.424 8.55-8.424 4.715 0 8.551 3.78 8.551 8.424 0 1.933-.67 3.711-1.786 5.134-.369.47-.783.904-1.243 1.288a8.582 8.582 0 0 1-5.521 2.003c-4.715-.001-8.551-3.78-8.551-8.425z"/></symbol><symbol id="pencil" viewBox="0.001 0 49.997 50"><svg xmlns="http://www.w3.org/2000/svg" width="50" height="50" viewBox="1.534 1.861 47.6 47.602"/><path paint-order="stroke fill markers" fill-rule="evenodd" d="M48.668 18.47a1.587 1.587 0 0 0-2.248 0L32.573 32.314l-19.467 8.573-3-3 8.577-19.465L32.527 4.576a1.59 1.59 0 1 0-2.248-2.249L16.01 16.591 1.534 49.463l32.868-14.478 14.266-14.268a1.588 1.588 0 0 0 0-2.247zM28.495 29.466a1.594 1.594 0 0 0 2.25 0l13.332-13.332a1.587 1.587 0 0 0 0-2.25 1.585 1.585 0 0 0-2.25 0L28.495 27.217c-.62.62-.62 1.627 0 2.25zm-3.48-3.48a1.592 1.592 0 0 0 2.25 0l13.333-13.333a1.59 1.59 0 1 0-2.25-2.25L25.015 23.735a1.592 1.592 0 0 0 0 2.25zm-3.48-3.484c.31.312.718.466 1.124.466.406 0 .814-.154 1.125-.466l13.333-13.33a1.588 1.588 0 0 0 0-2.25 1.586 1.586 0 0 0-2.25 0L21.534 20.253c-.62.62-.62 1.63 0 2.25z"/></symbol><symbol id="posts" viewBox="0 0.042 49 44.916"><svg xmlns="http://www.w3.org/2000/svg" width="45" height="45" viewBox="1.003 1.003 43.992 43.992"/><path paint-order="stroke fill markers" fill-rule="evenodd" d="M29.873 24.374H16.126a1.375 1.375 0 0 0 0 2.75h13.747a1.375 1.375 0 0 0 0-2.75zm2.75-8.248H13.375a1.375 1.375 0 0 0 0 2.749h19.246a1.375 1.375 0 1 0 0-2.75zM22.998 1.003C10.852 1.003 1.003 9.62 1.003 20.25c0 6.075 3.224 11.483 8.249 15.01v9.735l9.635-5.846c1.334.22 2.706.347 4.112.347 12.15 0 21.996-8.617 21.996-19.246C44.995 9.62 35.148 1.003 23 1.003zm0 35.744a22.23 22.23 0 0 1-4.646-.505l-6.473 3.89.087-6.376C7.005 30.772 3.753 25.84 3.753 20.25c0-9.11 8.617-16.497 19.246-16.497 10.63 0 19.247 7.386 19.247 16.497 0 9.11-8.617 16.497-19.247 16.497z"/></symbol><symbol id="logos" viewBox="0 0.079 65 56.843"><svg xmlns="http://www.w3.org/2000/svg" width="65" height="57" viewBox="1.331 1.994 63.046 55.134" fill="#fff"/><path fill="#fff" paint-order="stroke fill markers" fill-rule="evenodd" d="M38.108 12.713H27.6l5.254 9.192 5.254-9.192zm-11.822.767l-5.254 9.191H31.54l-5.254-9.191zm18.39 9.191l-5.254-9.191-5.254 9.191h10.508zm-10.508 1.53l5.254 9.189 5.254-9.188H34.168zm-13.136 0l5.254 9.189 5.254-9.188H21.032zm-6.567 9.953H24.97l-5.253-9.187-5.253 9.187zm36.778 0l-5.253-9.187-5.252 9.187h10.505zM32.854 1.994l-5.254 9.19h10.508l-5.254-9.19zm13.136 42.88l5.253-9.188H40.738l5.252 9.188zm-26.272 0l5.253-9.188H14.465l5.253 9.188zm-11.821.767h10.507l-5.253-9.19-5.254 9.19zm49.914 0l-5.254-9.19-5.254 9.19h10.508zm-10.508 1.53l5.254 9.188 5.254-9.187H47.303zm-13.135 0l5.254 9.188 5.254-9.187H34.168zM13.151 56.36l5.253-9.187H7.897l5.254 9.187zm-11.82.769h10.505l-5.254-9.189-5.25 9.189zm26.27 0h10.507l-5.254-9.189-5.254 9.189zm13.137 0h10.505l-5.253-9.189-5.252 9.189zm18.387-9.189l-5.252 9.189h10.504l-5.252-9.189z"/></symbol></svg>