<svg width="45" height="45" xmlns="http://www.w3.org/2000/svg" xmlns:xlink="http://www.w3.org/1999/xlink" xmlns:svgjs="http://svgjs.com/svgjs" viewBox="0 0.042 49 44.916"><svg xmlns="http://www.w3.org/2000/svg" width="45" height="45" viewBox="0 0 44 44" ><path  paint-order="stroke fill markers" fill-rule="evenodd" d="M20.937 32.25c5.688 0 10.313-5.63 10.313-12.547 0-6.92-4.625-12.547-10.313-12.547-2.813 0-5.44 1.346-7.394 3.788-1.883 2.354-2.92 5.464-2.918 8.759 0 6.92 4.625 12.547 10.312 12.547zm0-22.344c4.17 0 7.563 4.394 7.563 9.797 0 5.403-3.393 9.797-7.563 9.797-4.169 0-7.562-4.394-7.565-9.797 0-5.403 3.393-9.797 7.565-9.797zm8.661 20.969a1.374 1.374 0 1 0 0 2.75c4.701 0 8.527 3.825 8.527 8.528 0 .602-.494 1.097-1.101 1.097H4.848a1.1 1.1 0 0 1-1.098-1.097c0-4.703 3.824-8.528 8.524-8.528a1.374 1.374 0 1 0 0-2.75C6.057 30.875 1 35.935 1 42.153A3.852 3.852 0 0 0 4.848 46h32.176a3.854 3.854 0 0 0 3.851-3.847c0-6.219-5.06-11.278-11.277-11.278zM21.943 5.629c.984-.584 2.033-.878 3.12-.878 4.169 0 7.562 4.395 7.562 9.796 0 .969-.107 1.92-.32 2.828a1.373 1.373 0 1 0 2.677.629c.259-1.115.393-2.278.393-3.457C35.375 7.629 30.75 2 25.062 2a8.883 8.883 0 0 0-4.518 1.26 1.375 1.375 0 0 0 1.399 2.369zM34 25.375a1.374 1.374 0 1 0 0 2.75c4.701 0 8.25 3.918 8.25 8.618 0 .156-.03.31-.094.448a1.377 1.377 0 0 0 1.257 1.934c.526 0 1.028-.306 1.257-.817.218-.494.33-1.02.33-1.568 0-6.213-4.783-11.365-11-11.365z"/></svg></svg>