<svg width="53" height="37" xmlns="http://www.w3.org/2000/svg" xmlns:xlink="http://www.w3.org/1999/xlink" xmlns:svgjs="http://svgjs.com/svgjs" viewBox="0.085 0 52.83 37"><svg xmlns="http://www.w3.org/2000/svg" width="53" height="37" viewBox="1.738 1.335 50.901 35.649" ><path  paint-order="stroke fill markers" fill-rule="evenodd" d="M10 14.245c1.002-2.058 3.475-3.608 5.742-3.608h26.207V8.983c0-1.364-1.107-2.482-2.458-2.482H28.675V5.058c0-2.056-1.655-3.723-3.684-3.723H18.7a3.64 3.64 0 0 0-2.607 1.095 3.694 3.694 0 0 0-1.082 2.628v1.444H4.196C2.843 6.501 1.738 7.62 1.738 8.983v22.164L10 14.245zm7.47-9.187c0-.328.132-.64.362-.875.23-.238.54-.368.866-.368h6.29c.679 0 1.23.555 1.23 1.243v1.444H17.47V5.058zM42.92 34.763c-.595 1.221-2.192 2.22-3.543 2.22H4.08c-1.35 0-1.968-1.001-1.369-2.22l9.492-19.422c.593-1.223 2.189-2.226 3.539-2.226H51.04c1.354 0 1.969 1.003 1.371 2.226l-9.49 19.422z"/></svg></svg>