<svg width="45" height="45" xmlns="http://www.w3.org/2000/svg" xmlns:xlink="http://www.w3.org/1999/xlink" xmlns:svgjs="http://svgjs.com/svgjs" viewBox="0 0 45 44.999"><svg xmlns="http://www.w3.org/2000/svg" width="45" height="45" viewBox="1.36 1.067 43.567 43.566" ><path  paint-order="stroke fill markers" fill-rule="evenodd" d="M44.927 22.85c0-1.62-1.166-3.35-2.605-3.857-1.44-.51-2.835-1.758-3.24-2.742-.407-.982-.301-2.855.354-4.234.656-1.38.259-3.426-.886-4.574-1.146-1.146-3.193-1.541-4.573-.885-1.38.656-3.25.764-4.231.357-.981-.405-2.229-1.803-2.74-3.242-.513-1.439-2.242-2.606-3.862-2.606s-3.35 1.167-3.862 2.606c-.512 1.44-1.76 2.836-2.74 3.242-.982.407-2.852.3-4.232-.357-1.378-.656-3.427-.261-4.573.885-1.145 1.148-1.542 3.195-.886 4.574.656 1.38.76 3.25.353 4.233-.408.982-1.799 2.233-3.238 2.743-1.44.508-2.606 2.237-2.606 3.857s1.166 3.349 2.606 3.86c1.44.513 2.832 1.764 3.24 2.744.408.98.301 2.85-.355 4.23-.656 1.378-.26 3.426.886 4.571 1.146 1.147 3.193 1.544 4.573.887 1.38-.656 3.25-.761 4.231-.353.982.407 2.23 1.805 2.741 3.243.512 1.436 2.241 2.601 3.862 2.601 1.62 0 3.35-1.165 3.861-2.6.512-1.439 1.758-2.837 2.74-3.247.98-.408 2.852-.3 4.232.356 1.379.657 3.427.26 4.573-.887 1.145-1.145 1.542-3.193.886-4.572-.655-1.38-.763-3.25-.357-4.23.406-.981 1.803-2.23 3.243-2.742 1.439-.512 2.605-2.24 2.605-3.861zm-21.783 7.992a7.984 7.984 0 0 1-7.994-7.983 7.988 7.988 0 0 1 7.994-7.994c4.41 0 7.984 3.575 7.984 7.994a7.981 7.981 0 0 1-7.984 7.983z"/></svg></svg>