<svg width="19" height="25" xmlns="http://www.w3.org/2000/svg" xmlns:xlink="http://www.w3.org/1999/xlink" xmlns:svgjs="http://svgjs.com/svgjs" viewBox="0.128 0 18.744 25"><svg xmlns="http://www.w3.org/2000/svg" width="19" height="25" viewBox="1.003 1.998 17.991 23.996" ><path  paint-order="stroke fill markers" fill-rule="evenodd" d="M15.995 4.999h-1.499c0-1.657-2.013-3-4.497-3-2.485 0-4.498 1.343-4.498 3h-1.5a2.999 2.999 0 0 0-2.998 2.998v14.998a3 3 0 0 0 2.999 3h11.993a3 3 0 0 0 3-3V7.997a2.999 2.999 0 0 0-3-2.998zM10 3.499c1.656 0 2.998.463 2.998 1.5H7c0-1.037 1.343-1.5 2.999-1.5zm7.496 19.496a1.5 1.5 0 0 1-1.5 1.5H4.002c-.828 0-1.5-.672-1.5-1.5v-1.5h14.993v1.5zm0-3H2.502V7.997a1.5 1.5 0 0 1 1.5-1.5H5.5v4.5h1.5v-4.5h5.996v4.5h1.5v-4.5h1.498a1.5 1.5 0 0 1 1.5 1.5v11.998z"/></svg></svg>