<svg width="25" height="25" xmlns="http://www.w3.org/2000/svg" xmlns:xlink="http://www.w3.org/1999/xlink" xmlns:svgjs="http://svgjs.com/svgjs" viewBox="0 0 24.999 25"><svg xmlns="http://www.w3.org/2000/svg" width="25" height="25" viewBox="1.001 1.998 23.988 23.989" ><path  paint-order="stroke fill markers" fill-rule="evenodd" d="M24.762 24.681l-6.193-6.095c1.621-1.761 2.618-4.092 2.618-6.657-.001-5.486-4.52-9.931-10.094-9.931S1.001 6.443 1.001 11.928c0 5.488 4.518 9.934 10.092 9.934 2.409 0 4.618-.834 6.353-2.218l6.217 6.12a.785.785 0 0 0 1.098 0 .758.758 0 0 0 .001-1.083zm-13.669-4.347c-4.716 0-8.54-3.762-8.54-8.405 0-4.641 3.824-8.404 8.54-8.404 4.717 0 8.54 3.763 8.54 8.404 0 4.643-3.823 8.405-8.54 8.405z"/></svg></svg>