<svg width="55" height="45" xmlns="http://www.w3.org/2000/svg" xmlns:xlink="http://www.w3.org/1999/xlink" xmlns:svgjs="http://svgjs.com/svgjs" viewBox="0 0.095 55 44.81"><svg xmlns="http://www.w3.org/2000/svg" width="55" height="45" viewBox="1.003 1.003 53.995 43.992" ><path paint-order="stroke fill markers" fill-rule="evenodd" d="M53.31 41.611H2.69a1.69 1.69 0 0 0-1.687 1.693 1.69 1.69 0 0 0 1.688 1.691h50.62a1.69 1.69 0 0 0 1.687-1.691 1.69 1.69 0 0 0-1.688-1.693zM29.688 7.771V4.387h3.375a1.69 1.69 0 0 0 1.687-1.692 1.69 1.69 0 0 0-1.687-1.692H22.939a1.69 1.69 0 0 0-1.688 1.692 1.69 1.69 0 0 0 1.688 1.692h3.375s-.013 3.523 0 3.384c-14.12.878-25.31 12.692-25.31 27.072v1.692a1.69 1.69 0 0 0 1.687 1.692h50.62a1.69 1.69 0 0 0 1.687-1.692v-1.692c0-14.38-11.19-26.194-25.31-27.072zM4.378 34.843c0-13.082 10.576-23.688 23.623-23.688s23.622 10.606 23.622 23.688H4.378z"/></svg></svg>