<svg width="45" height="45" xmlns="http://www.w3.org/2000/svg" xmlns:xlink="http://www.w3.org/1999/xlink" xmlns:svgjs="http://svgjs.com/svgjs" viewBox="0 0.042 49 44.916"><svg xmlns="http://www.w3.org/2000/svg" width="45" height="45" viewBox="2 2 44 44" ><path  paint-order="stroke fill markers" fill-rule="evenodd" d="M32.25 2c-.424 0-.847.026-1.268.064-.154.014-.306.036-.459.057a12.918 12.918 0 0 0-1.95.393c-.198.055-.396.109-.59.172-.178.058-.35.127-.524.193-.46.172-.908.366-1.343.582-.086.042-.176.081-.26.127-.229.121-.449.255-.672.388-.12.074-.244.144-.365.222a13.64 13.64 0 0 0-.628.434c-.062.045-.128.086-.191.132A13.706 13.706 0 0 0 15.75 2C8.168 2 2 8.166 2 15.75c0 12.445 8.002 23.702 21.406 30.113a1.368 1.368 0 0 0 1.188 0C37.997 39.453 46 28.195 46 15.75 46 8.166 39.83 2 32.25 2zM24 43.097C11.934 37.107 4.75 26.927 4.75 15.75c0-6.066 4.935-11 11-11 2.219 0 4.368.684 6.19 1.933-2.135 2.424-3.44 5.592-3.44 9.067a1.374 1.374 0 1 0 2.75 0c0-3.274 1.446-6.211 3.723-8.227.211-.188.432-.366.654-.536.051-.036.101-.075.152-.113a10.754 10.754 0 0 1 .864-.57c.221-.133.448-.258.678-.373a11.148 11.148 0 0 1 .912-.41c.099-.04.2-.076.304-.113.214-.077.428-.15.646-.212.133-.038.262-.071.395-.103.197-.05.392-.1.593-.14.182-.033.366-.057.548-.084.156-.023.312-.05.47-.066.35-.032.704-.053 1.061-.053 6.065 0 11 4.934 11 11 0 11.177-7.184 21.358-19.25 27.347zM32.25 7.5a1.375 1.375 0 0 0 0 2.75c3.033 0 5.5 2.466 5.5 5.5a1.375 1.375 0 0 0 2.75 0c0-4.55-3.7-8.25-8.25-8.25z"/></svg></svg>