<svg width="27" height="26" xmlns="http://www.w3.org/2000/svg" xmlns:xlink="http://www.w3.org/1999/xlink" xmlns:svgjs="http://svgjs.com/svgjs" viewBox="0.128 0 26.745 26"><svg xmlns="http://www.w3.org/2000/svg" width="27" height="26" viewBox="1.777 1.186 25.161 24.46" ><path paint-order="stroke fill markers" fill-rule="evenodd" d="M12.304 5.082c-.726 0-1.315.58-1.315 1.295 0 .717.589 1.297 1.315 1.297 1.607 0 3.043.885 3.748 2.309.228.461.695.728 1.182.728.195 0 .39-.043.576-.13.654-.314.925-1.09.607-1.734-1.15-2.322-3.492-3.765-6.113-3.765zm14.152 17.8l-4.383-4.319a10.834 10.834 0 0 0 2.068-6.36c0-6.075-5.016-11.017-11.182-11.017S1.777 6.128 1.777 12.202 6.793 23.218 12.96 23.218c2.576 0 4.943-.87 6.836-2.317l4.335 4.27a1.65 1.65 0 0 0 1.163.475c.421 0 .842-.157 1.163-.474a1.602 1.602 0 0 0 0-2.29zM4.41 12.201c0-4.645 3.836-8.424 8.55-8.424 4.715 0 8.551 3.78 8.551 8.424 0 1.933-.67 3.711-1.786 5.134-.369.47-.783.904-1.243 1.288a8.582 8.582 0 0 1-5.521 2.003c-4.715-.001-8.551-3.78-8.551-8.425z"/></svg></svg>