<svg width="50" height="50" xmlns="http://www.w3.org/2000/svg" xmlns:xlink="http://www.w3.org/1999/xlink" xmlns:svgjs="http://svgjs.com/svgjs" viewBox="0.001 0 49.997 50"><svg xmlns="http://www.w3.org/2000/svg" width="50" height="50" viewBox="1.534 1.861 47.6 47.602" ><path  paint-order="stroke fill markers" fill-rule="evenodd" d="M48.668 18.47a1.587 1.587 0 0 0-2.248 0L32.573 32.314l-19.467 8.573-3-3 8.577-19.465L32.527 4.576a1.59 1.59 0 1 0-2.248-2.249L16.01 16.591 1.534 49.463l32.868-14.478 14.266-14.268a1.588 1.588 0 0 0 0-2.247zM28.495 29.466a1.594 1.594 0 0 0 2.25 0l13.332-13.332a1.587 1.587 0 0 0 0-2.25 1.585 1.585 0 0 0-2.25 0L28.495 27.217c-.62.62-.62 1.627 0 2.25zm-3.48-3.48a1.592 1.592 0 0 0 2.25 0l13.333-13.333a1.59 1.59 0 1 0-2.25-2.25L25.015 23.735a1.592 1.592 0 0 0 0 2.25zm-3.48-3.484c.31.312.718.466 1.124.466.406 0 .814-.154 1.125-.466l13.333-13.33a1.588 1.588 0 0 0 0-2.25 1.586 1.586 0 0 0-2.25 0L21.534 20.253c-.62.62-.62 1.63 0 2.25z"/></svg></svg>