<svg width="45" height="45" xmlns="http://www.w3.org/2000/svg" xmlns:xlink="http://www.w3.org/1999/xlink" xmlns:svgjs="http://svgjs.com/svgjs" viewBox="0 0.042 49 44.916"><svg xmlns="http://www.w3.org/2000/svg" width="45" height="45" viewBox="1.003 1.003 43.992 43.992" ><path  paint-order="stroke fill markers" fill-rule="evenodd" d="M29.873 24.374H16.126a1.375 1.375 0 0 0 0 2.75h13.747a1.375 1.375 0 0 0 0-2.75zm2.75-8.248H13.375a1.375 1.375 0 0 0 0 2.749h19.246a1.375 1.375 0 1 0 0-2.75zM22.998 1.003C10.852 1.003 1.003 9.62 1.003 20.25c0 6.075 3.224 11.483 8.249 15.01v9.735l9.635-5.846c1.334.22 2.706.347 4.112.347 12.15 0 21.996-8.617 21.996-19.246C44.995 9.62 35.148 1.003 23 1.003zm0 35.744a22.23 22.23 0 0 1-4.646-.505l-6.473 3.89.087-6.376C7.005 30.772 3.753 25.84 3.753 20.25c0-9.11 8.617-16.497 19.246-16.497 10.63 0 19.247 7.386 19.247 16.497 0 9.11-8.617 16.497-19.247 16.497z"/></svg></svg>