<svg aria-hidden="true" style="position: absolute; width: 0; height: 0; overflow: hidden;" version="1.1" xmlns="http://www.w3.org/2000/svg" xmlns:xlink="http://www.w3.org/1999/xlink">
<defs>
<symbol id="shape1" viewBox="0 0 31 32">
<path d="M30.057-0.004h-4.6c-0.432 0-0.779 0.347-0.779 0.779v1.608h-18.564v-1.608c0-0.432-0.347-0.779-0.779-0.779h-4.557c-0.432 0-0.779 0.347-0.779 0.779v4.731c0 0.432 0.347 0.779 0.779 0.779h4.6c0.432 0 0.779-0.347 0.779-0.779v-1.608h8.544c-0.085 1.908-4.727 10.888-7.676 16.181-0.173 0.305-0.085 0.694 0.173 0.952 2.645 2.255 3.296 4.468 3.47 5.598h-0.999c-0.432 0-0.779 0.347-0.779 0.779v3.817c0 0.436 0.347 0.783 0.779 0.783h11.539c0.432 0 0.779-0.347 0.779-0.783v-3.817c0-0.432-0.347-0.779-0.779-0.779h-0.999c0.174-1.13 0.825-3.343 3.47-5.598 0.258-0.216 0.347-0.648 0.174-0.952-2.949-5.293-7.591-14.315-7.676-16.181h8.501v1.608c0 0.432 0.347 0.779 0.779 0.779h4.6c0.432 0 0.779-0.347 0.779-0.779v-4.731c0-0.432-0.347-0.779-0.779-0.779zM4.596 4.723h-3.077v-3.208h3.077v3.208zM15.441 17.434c0.563 0 0.995 0.432 0.995 0.995 0 0.567-0.432 0.999-0.995 0.999-0.567 0-0.999-0.432-0.999-0.999 0-0.52 0.478-0.995 0.999-0.995zM20.472 30.404h-10.020v-2.302h10.020v2.302zM18.691 26.583h-6.504c-0.174-1.257-0.825-3.771-3.555-6.331 1.037-1.908 4.16-7.634 6.026-11.886v7.68c-0.999 0.301-1.735 1.257-1.735 2.383 0 1.388 1.13 2.518 2.518 2.518s2.514-1.13 2.514-2.518c0-1.126-0.736-2.036-1.735-2.383v-7.722c1.908 4.253 4.989 9.978 6.030 11.929-2.733 2.56-3.385 5.074-3.559 6.331zM29.317 4.723h-3.077v-3.165h3.077v3.165z"></path>
</symbol>
<symbol id="shape2" viewBox="0 0 33 32">
<path d="M32.387 32h-31.512c-0.484 0-0.876-0.396-0.876-0.884v-25.651c0-0.488 0.392-0.884 0.876-0.884h31.512c0.484 0 0.876 0.396 0.876 0.884v25.651c0 0.488-0.392 0.884-0.876 0.884zM1.752 30.232h29.76v-23.882h-29.76v23.882zM32.387 6.349h-31.512c-0.484 0-0.876-0.396-0.876-0.884v-4.585c0-0.488 0.392-0.884 0.876-0.884h31.512c0.484 0 0.876 0.396 0.876 0.884v4.585c0 0.488-0.392 0.884-0.876 0.884zM1.752 4.581h29.76v-2.817h-29.76v2.817zM3.865 2.556c0.337 0 0.611 0.278 0.611 0.619s-0.274 0.619-0.611 0.619c-0.337 0-0.611-0.278-0.611-0.619s0.274-0.619 0.611-0.619zM5.697 2.556c0.337 0 0.611 0.278 0.611 0.619s-0.274 0.615-0.611 0.615c-0.337 0-0.611-0.274-0.611-0.615s0.274-0.619 0.611-0.619zM7.528 2.556c0.337 0 0.615 0.278 0.615 0.619s-0.278 0.619-0.615 0.619c-0.337 0-0.611-0.278-0.611-0.619s0.274-0.619 0.611-0.619zM12.227 20.707c-0.194 0-0.392-0.076-0.539-0.227l-2.383-2.404c-0.299-0.303-0.299-0.792 0-1.095l2.379-2.404c0.299-0.299 0.783-0.299 1.082 0 0.299 0.303 0.299 0.792 0 1.095l-1.836 1.857 1.84 1.857c0.299 0.303 0.299 0.792 0 1.095-0.147 0.152-0.345 0.227-0.543 0.227zM21.036 20.707c-0.194 0-0.392-0.076-0.539-0.227-0.299-0.303-0.299-0.792 0-1.095l1.836-1.853-1.84-1.861c-0.299-0.303-0.299-0.792 0-1.095 0.299-0.299 0.783-0.299 1.082 0l2.383 2.408c0.143 0.143 0.223 0.341 0.223 0.547 0 0.202-0.080 0.4-0.223 0.543l-2.379 2.404c-0.152 0.152-0.345 0.227-0.543 0.227zM15.533 22.493c-0.063 0-0.126-0.008-0.189-0.025-0.408-0.105-0.657-0.526-0.552-0.939l1.945-7.697c0.105-0.417 0.526-0.665 0.931-0.56 0.413 0.105 0.661 0.526 0.556 0.943l-1.949 7.697c-0.088 0.349-0.4 0.581-0.741 0.581z"></path>
</symbol>
<symbol id="shape3" viewBox="0 0 28 32">
<path d="M7.652 13.401c-0.144 0-0.285-0.053-0.39-0.158l-1.090-1.083c-0.215-0.214-0.215-0.563 0-0.774 0.215-0.214 0.563-0.214 0.781 0l0.7 0.693 1.786-1.776c0.218-0.214 0.566-0.214 0.781 0s0.214 0.559 0 0.774l-2.177 2.166c-0.109 0.105-0.25 0.158-0.39 0.158zM19.098 12.322h-6.565c-0.306 0-0.552-0.246-0.552-0.549s0.246-0.549 0.552-0.549h6.565c0.306 0 0.552 0.246 0.552 0.549s-0.246 0.549-0.552 0.549zM7.652 22.783c-0.144 0-0.285-0.053-0.39-0.158l-1.090-1.083c-0.215-0.215-0.215-0.563 0-0.774 0.215-0.215 0.563-0.215 0.781 0l0.7 0.693 1.786-1.776c0.218-0.215 0.566-0.215 0.781 0s0.214 0.563 0 0.774l-2.177 2.166c-0.109 0.105-0.25 0.158-0.39 0.158zM19.098 21.704h-6.565c-0.306 0-0.552-0.246-0.552-0.549s0.246-0.549 0.552-0.549h6.565c0.306 0 0.552 0.246 0.552 0.549s-0.246 0.549-0.552 0.549zM7.652 27.478c-0.144 0-0.285-0.056-0.39-0.162l-1.090-1.083c-0.215-0.215-0.215-0.559 0-0.774s0.563-0.215 0.781 0l0.7 0.693 1.786-1.776c0.218-0.215 0.566-0.215 0.781 0 0.218 0.215 0.214 0.563 0 0.777l-2.177 2.163c-0.109 0.105-0.25 0.162-0.39 0.162zM19.098 26.395h-6.565c-0.306 0-0.552-0.246-0.552-0.549s0.246-0.549 0.552-0.549h6.565c0.306 0 0.552 0.246 0.552 0.549s-0.246 0.549-0.552 0.549zM7.652 18.092c-0.144 0-0.285-0.053-0.39-0.158l-1.090-1.083c-0.215-0.215-0.215-0.563 0-0.777 0.215-0.211 0.563-0.211 0.781 0l0.7 0.696 1.786-1.776c0.218-0.214 0.566-0.214 0.781 0 0.218 0.214 0.214 0.559 0 0.774l-2.177 2.166c-0.109 0.105-0.25 0.158-0.39 0.158zM19.098 17.013h-6.565c-0.306 0-0.552-0.246-0.552-0.549s0.246-0.549 0.552-0.549h6.565c0.306 0 0.552 0.246 0.552 0.549s-0.246 0.549-0.552 0.549zM27.038 4.009h-6.495c-0.077-1.118-1.016-1.997-2.159-1.997h-2.103c-0.018-1.108-0.925-2.008-2.047-2.008-1.118 0-2.033 0.9-2.043 2.008h-2.106c-1.139 0-2.078 0.879-2.156 1.997h-7.198c-0.408 0-0.735 0.331-0.735 0.731v26.528c0 0.404 0.327 0.731 0.735 0.731h26.307c0.408 0 0.735-0.327 0.735-0.731v-26.528c0-0.401-0.327-0.731-0.735-0.731zM9.393 4.164c0-0.38 0.309-0.689 0.693-0.689h2.3c0.707 0 1.28-0.57 1.28-1.269v-0.169c0-0.313 0.257-0.57 0.57-0.57 0.316 0 0.573 0.257 0.573 0.57v0.169c0 0.7 0.573 1.269 1.276 1.269h2.3c0.387 0 0.696 0.309 0.696 0.689v1.498h-9.688v-1.498zM26.303 30.537h-24.837v-25.066h6.456v0.921c0 0.404 0.327 0.731 0.735 0.731h11.158c0.408 0 0.735-0.327 0.735-0.731v-0.921h5.749v25.066h0.004zM14.235 3.566c0.39 0 0.707 0.313 0.707 0.703 0 0.387-0.316 0.7-0.707 0.7s-0.707-0.313-0.707-0.7c0-0.39 0.316-0.703 0.707-0.703z"></path>
</symbol>
</defs>
</svg>
